# xmcd
# Copyright (C) 1995-1998 Ti Kan
#
# Track frame offsets:
#       150
#       4683
#       8949
#       33258
#       58739
#       77304
#       97655
#       123632
#       145078
#       171078
#       189120
#       206952
#       228324
#       266307
#       277554
#       300548
#       326995
#       333019
#
# Disc length: 4486 seconds
#
# Revision: 0
# Processed by: cddbd v1.5.2PL0 Copyright (c) Steve Scherf et al.
# Submitted via: CD-Import v1.0
#
DISCID=dc118412
DTITLE=Dominik Dusek&andrew Wolfensberger - Das Knie
DYEAR=06
DGENRE=
TTITLE0=01 Vorspann
TTITLE1=02 Traum
TTITLE2=03 Café Prince
TTITLE3=04 Guten Morgen
TTITLE4=05chefredaktion
TTITLE5=06 Archiv
TTITLE6=07 Massage
TTITLE7=08 Knie
TTITLE8=09 Tv
TTITLE9=10 Kanzlei
TTITLE10=11 Lauf!
TTITLE11=12 Krankenhaus
TTITLE12=13 Archiv 2
TTITLE13=14 Love Theme From The Knie
TTITLE14=15 48 Stunden
TTITLE15=16 Japan
TTITLE16=17 Traum Reprise
TTITLE17=18 Abspann
EXTD=
EXTT0=
EXTT1=
EXTT2=
EXTT3=
EXTT4=
EXTT5=
EXTT6=
EXTT7=
EXTT8=
EXTT9=
EXTT10=
EXTT11=
EXTT12=
EXTT13=
EXTT14=
EXTT15=
EXTT16=
EXTT17=
PLAYORDER=
